<?xml version="1.0" standalone="no"?>
<!DOCTYPE svg PUBLIC "-//W3C//DTD SVG 20010904//EN"
 "http://www.w3.org/TR/2001/REC-SVG-20010904/DTD/svg10.dtd">
<svg version="1.0" xmlns="http://www.w3.org/2000/svg"
 width="1000.000000pt" height="1000.000000pt" viewBox="0 0 1000.000000 1000.000000"
 preserveAspectRatio="xMidYMid meet">
<metadata>
Created by potrace 1.11, written by Peter Selinger 2001-2013
</metadata>
<g transform="translate(0.000000,1000.000000) scale(0.100000,-0.100000)"
fill="#000000" stroke="none">
<path d="M2616 9897 c-10 -56 -20 -113 -22 -127 -18 -97 -55 -310 -58 -330 -2
-14 -11 -64 -20 -110 -8 -47 -18 -103 -21 -125 -7 -44 -8 -48 -31 -180 -8 -49
-17 -101 -19 -115 -3 -14 -7 -41 -10 -60 -3 -19 -9 -46 -12 -60 -4 -14 -8 -32
-9 -40 -9 -67 -14 -98 -18 -120 -3 -13 -8 -40 -11 -60 -3 -20 -8 -47 -11 -60
-3 -14 -6 -35 -5 -47 0 -13 -4 -23 -10 -23 -5 0 -7 -4 -4 -10 5 -8 -5 -70 -31
-205 -2 -11 -7 -40 -10 -65 -3 -25 -8 -54 -11 -65 -2 -11 -7 -38 -10 -60 -3
-22 -10 -46 -15 -52 -7 -9 -7 -13 1 -13 7 0 8 -8 2 -23 -5 -12 -12 -44 -15
-71 -4 -27 -9 -52 -11 -56 -2 -3 -6 -26 -10 -50 -5 -40 -19 -122 -31 -187 -4
-24 -10 -58 -19 -115 -3 -18 -10 -58 -16 -88 -11 -58 -13 -71 -23 -135 -4 -22
-11 -62 -16 -90 -5 -27 -12 -63 -14 -80 -12 -70 -17 -101 -21 -115 -2 -8 -7
-35 -10 -60 -3 -25 -8 -52 -10 -60 -4 -14 -14 -80 -20 -127 -2 -12 -6 -34 -9
-50 -9 -41 -15 -73 -21 -113 -3 -20 -8 -47 -10 -60 -3 -14 -12 -65 -20 -115
-8 -49 -17 -101 -20 -115 -3 -14 -10 -54 -16 -90 -6 -36 -17 -99 -24 -140 -14
-75 -22 -119 -30 -175 -3 -16 -7 -41 -10 -55 -3 -14 -8 -42 -11 -64 -3 -21 -8
-48 -10 -60 -3 -11 -7 -39 -10 -61 -3 -22 -12 -69 -20 -105 -8 -36 -16 -81
-18 -100 -3 -31 -16 -104 -31 -180 -3 -14 -8 -45 -11 -70 -3 -25 -7 -52 -9
-60 -3 -8 -7 -33 -10 -55 -3 -22 -8 -51 -11 -65 -6 -27 -10 -45 -18 -100 -3
-19 -8 -46 -11 -60 -2 -13 -8 -42 -11 -65 -15 -91 -21 -127 -30 -165 -3 -14
-8 -41 -10 -60 -2 -19 -11 -73 -20 -120 -9 -47 -18 -98 -20 -115 -6 -39 -10
-63 -17 -100 -4 -16 -15 -86 -27 -155 -11 -69 -25 -145 -30 -170 -5 -25 -11
-63 -14 -85 -3 -22 -8 -51 -11 -65 -3 -14 -7 -38 -10 -55 -3 -16 -7 -41 -10
-55 -3 -14 -7 -41 -10 -60 -6 -40 -16 -95 -21 -125 -4 -17 -38 -215 -49 -280
-6 -38 -15 -90 -20 -120 -3 -16 -9 -50 -14 -75 -6 -40 -9 -55 -12 -62 0 -2 -2
-12 -3 -23 -2 -11 -6 -36 -9 -55 -4 -19 -9 -46 -11 -60 -3 -14 -7 -43 -11 -65
-3 -22 -7 -47 -10 -55 -4 -14 -6 -30 -21 -130 -3 -19 -7 -42 -9 -50 -3 -8 -7
-33 -10 -55 -3 -22 -11 -64 -16 -94 -6 -30 -12 -64 -14 -75 -2 -12 -6 -39 -10
-61 -3 -22 -8 -51 -10 -65 -3 -14 -7 -36 -10 -50 -8 -44 -15 -84 -20 -125 -3
-22 -8 -47 -10 -55 -2 -8 -7 -30 -10 -47 -3 -18 -8 -48 -11 -65 -3 -18 -7 -44
-9 -58 -1 -14 -7 -50 -13 -80 -11 -54 -19 -101 -27 -151 -2 -14 -13 -77 -24
-140 -11 -63 -23 -127 -26 -144 -3 -16 -7 -43 -10 -60 -5 -28 -21 -121 -30
-175 -3 -14 -7 -36 -9 -50 -3 -14 -8 -41 -10 -60 -3 -19 -8 -46 -11 -60 -2
-13 -7 -42 -10 -65 -3 -22 -9 -49 -12 -60 -3 -11 -7 -31 -8 -45 -3 -25 -11
-73 -20 -120 -3 -14 -7 -41 -10 -60 -3 -19 -7 -46 -10 -60 -3 -14 -8 -41 -11
-60 -2 -19 -6 -42 -9 -50 -5 -15 -15 -81 -21 -130 -1 -14 -3 -25 -4 -25 -2 0
-6 -21 -14 -68 l-6 -38 1632 4 c898 2 1649 6 1668 10 19 3 71 8 115 12 83 6
99 8 200 20 33 4 69 8 80 9 11 1 26 5 33 9 6 5 16 6 20 3 4 -3 26 -1 48 4 21
5 55 11 74 14 19 3 44 7 55 10 11 2 40 7 65 12 25 4 47 8 50 9 30 9 59 16 80
19 14 2 54 12 90 21 36 9 72 19 80 20 182 42 594 191 807 291 39 19 76 34 82
34 6 0 11 4 11 9 0 5 12 12 28 16 15 3 35 14 45 22 9 9 17 13 17 10 0 -4 23 7
50 23 28 17 52 30 54 30 5 0 196 109 225 128 14 10 38 24 54 32 15 7 27 17 27
22 0 4 5 8 11 8 10 0 130 77 139 90 3 4 19 15 35 24 36 20 76 49 136 98 25 21
49 38 52 38 3 0 17 10 30 23 13 12 39 33 58 47 18 14 40 32 49 40 9 8 31 28
50 44 152 126 341 313 495 490 33 38 68 77 78 88 9 10 17 20 17 23 0 3 8 13
18 23 36 38 62 72 62 82 0 6 3 10 8 10 4 1 25 26 47 56 22 31 49 67 61 82 11
15 55 79 97 142 42 63 81 120 87 127 5 7 10 14 10 16 0 3 29 52 65 111 36 58
65 110 65 115 0 5 7 14 15 21 8 7 13 16 10 20 -3 5 -1 10 4 12 9 3 165 310
210 411 33 73 56 128 75 177 10 25 22 54 27 65 27 66 45 112 80 210 22 61 42
118 44 127 2 9 18 61 35 115 18 54 34 106 36 116 2 9 6 25 9 35 18 67 58 221
62 237 9 40 12 50 13 50 1 0 3 9 5 20 2 11 8 45 15 75 7 30 14 66 15 80 2 14
4 26 5 28 4 3 5 11 19 92 7 41 15 84 18 95 5 26 8 44 22 141 6 44 13 91 16
103 2 12 7 49 10 82 4 33 9 70 12 82 2 12 6 38 8 57 7 65 14 115 15 115 1 0 3
14 5 30 2 17 7 48 9 70 9 62 16 135 21 195 2 30 4 55 5 55 1 0 4 47 8 105 14
221 6 728 -13 895 -10 88 -27 221 -31 245 -2 14 -7 41 -10 60 -2 19 -7 46 -10
60 -2 14 -6 36 -9 50 -2 14 -6 36 -9 50 -3 14 -10 48 -16 75 -13 63 -60 255
-67 275 -7 18 -10 29 -17 55 -18 76 -127 382 -172 483 -13 28 -24 54 -24 57 0
3 -7 20 -17 38 -9 17 -18 34 -18 37 -2 13 -130 255 -173 325 -26 44 -54 91
-62 105 -8 14 -17 27 -20 30 -3 3 -25 34 -49 70 -51 75 -184 246 -237 305
-153 168 -299 306 -439 415 -39 30 -71 58 -73 62 -2 5 -10 8 -18 8 -8 0 -14 3
-14 8 0 4 -18 18 -40 32 -22 14 -40 28 -40 32 0 5 -4 8 -9 8 -5 0 -43 23 -84
50 -41 28 -79 50 -85 50 -6 0 -12 4 -14 8 -8 20 -400 222 -431 222 -7 0 -17 4
-22 8 -6 5 -57 26 -115 47 -58 20 -114 41 -125 46 -25 10 -225 68 -251 72 -10
1 -25 6 -32 11 -7 4 -16 6 -19 3 -3 -3 -16 -1 -30 4 -14 5 -41 12 -61 15 -19
3 -44 8 -56 10 -11 3 -39 7 -60 10 -22 3 -43 7 -46 9 -14 9 -272 38 -455 51
-33 2 -717 6 -1521 9 l-1461 4 -17 -102z m2874 -1312 c30 -3 75 -7 100 -9 25
-3 62 -7 83 -10 20 -3 52 -8 70 -11 17 -3 43 -7 57 -11 14 -3 34 -7 45 -9 11
-1 47 -10 80 -20 33 -9 74 -20 90 -24 17 -5 46 -15 65 -23 19 -8 39 -15 43
-15 47 -4 364 -168 375 -195 2 -5 8 -8 13 -8 35 0 287 -236 374 -350 28 -36
53 -67 56 -70 9 -8 65 -93 89 -135 63 -109 110 -196 110 -202 0 -3 11 -29 24
-58 14 -28 43 -107 66 -176 23 -68 44 -131 47 -139 3 -8 7 -24 9 -35 5 -30 12
-60 14 -60 1 0 3 -11 6 -25 2 -14 12 -59 20 -100 9 -41 18 -88 20 -105 2 -16
7 -43 9 -60 3 -16 7 -51 10 -77 3 -27 7 -69 10 -95 24 -222 23 -670 -1 -973
-2 -25 -6 -81 -8 -125 -3 -44 -6 -80 -7 -80 -1 0 -6 -36 -13 -109 -9 -86 -20
-178 -32 -261 -4 -27 -8 -61 -10 -75 -1 -14 -3 -25 -4 -25 -1 0 -3 -9 -4 -20
-3 -19 -11 -78 -21 -150 -2 -16 -7 -43 -10 -60 -23 -129 -39 -211 -52 -275 -8
-41 -17 -84 -19 -95 -5 -32 -63 -268 -73 -295 -5 -14 -19 -59 -31 -100 -28
-95 -107 -323 -130 -375 -10 -22 -35 -80 -56 -130 -62 -148 -160 -334 -267
-510 -21 -34 -131 -199 -144 -215 -7 -8 -26 -33 -43 -55 -65 -86 -70 -92 -168
-204 -66 -76 -217 -226 -286 -286 -33 -27 -64 -55 -70 -60 -86 -80 -337 -248
-491 -330 -38 -20 -74 -40 -80 -43 -5 -4 -12 -7 -15 -8 -3 0 -32 -13 -65 -28
-123 -57 -142 -65 -186 -81 -24 -9 -48 -17 -54 -19 -5 -2 -23 -8 -39 -15 -16
-6 -38 -13 -50 -16 -11 -2 -22 -4 -23 -6 -2 -1 -6 -2 -10 -4 -5 -1 -15 -5 -23
-8 -8 -4 -33 -11 -55 -16 -22 -5 -74 -18 -115 -29 -42 -11 -91 -23 -110 -26
-19 -3 -45 -8 -57 -11 -13 -3 -31 -7 -41 -9 -11 -2 -43 -7 -73 -11 -30 -3 -61
-8 -69 -10 -8 -2 -46 -7 -85 -10 -38 -4 -83 -9 -100 -11 -16 -2 -108 -6 -204
-9 -95 -3 -177 -8 -181 -10 -5 -3 -11 -2 -13 2 -3 5 -217 8 -476 8 l-471 0 6
35 c3 19 7 46 9 60 1 14 5 36 8 50 4 14 9 41 12 60 2 19 6 44 9 55 5 26 29
166 31 185 1 8 5 26 8 40 4 14 9 41 12 60 2 19 7 49 11 65 3 17 7 46 9 65 2
19 4 35 5 35 1 0 3 9 5 20 2 11 7 36 10 55 8 39 11 59 19 110 3 19 8 46 10 60
3 14 10 52 15 85 6 33 13 69 15 80 2 11 7 40 11 65 10 68 14 93 20 120 6 32
22 125 29 170 3 19 8 46 11 60 3 14 7 39 10 55 3 17 7 41 10 55 2 14 7 43 10
65 3 22 7 47 10 55 2 8 6 31 9 50 3 19 8 46 11 60 2 14 7 41 9 60 3 19 8 49
11 65 3 17 7 39 9 50 2 11 7 36 11 55 3 19 8 49 10 65 2 17 4 30 5 30 1 0 3 9
5 20 6 35 17 99 21 130 3 17 7 41 11 55 3 14 7 36 9 50 6 43 8 54 44 260 11
58 22 120 25 138 3 17 8 47 11 65 3 17 7 43 9 57 2 14 11 62 19 107 8 45 17
99 21 120 3 21 7 50 10 63 8 39 24 131 30 170 3 19 7 46 10 60 3 14 7 39 10
55 3 17 7 39 9 50 2 11 11 63 20 115 9 52 18 107 21 123 3 15 9 53 15 85 15
92 20 116 24 137 2 11 7 40 11 65 11 64 12 73 33 195 11 61 20 117 21 125 0 8
10 62 21 119 11 57 22 120 24 140 3 20 5 37 7 39 3 3 5 13 14 72 5 30 9 57 10
60 2 8 18 104 20 120 1 8 10 58 19 110 9 52 19 109 22 125 3 17 12 66 20 110
8 44 17 94 19 110 7 46 14 87 20 115 3 14 7 39 9 55 3 26 16 97 30 171 8 39
18 99 21 124 2 14 14 88 29 165 14 77 27 156 30 175 2 19 7 46 10 60 3 14 8
41 11 60 2 19 7 46 10 60 6 30 13 68 20 113 3 17 7 43 10 57 3 14 7 39 10 55
3 17 7 41 10 55 2 13 7 42 10 65 3 22 8 47 10 55 2 8 6 33 10 55 3 22 12 76
20 120 8 44 18 98 21 120 3 22 7 45 8 50 5 33 10 33 684 29 367 -2 692 -6 722
-9z"/>
</g>
</svg>
