<svg width="410" height="500" viewBox="0 0 410 500" fill="none" xmlns="http://www.w3.org/2000/svg">
<style>
    path {
        fill: black;
    }
  </style>
<path d="M0 500L86.6451 0L222.114 0.343407C263.832 0.343407 299.705 10.7601 329.733 31.5934C359.99 52.1978 381.88 80.815 395.404 117.445C408.928 153.846 413.054 194.025 407.782 237.981L404 265.11C397.123 311.126 381.88 351.992 358.27 387.706C334.89 423.191 304.633 450.778 267.499 470.467C230.366 490.156 189.565 500 145.096 500H0ZM159.537 70.0549L96.9599 430.632L147.159 430.975C192.545 430.975 230.137 416.667 259.935 388.049C289.963 359.203 309.217 319.483 317.699 268.887C323.658 234.089 325.836 203.755 324.231 177.885C322.168 144.689 312.426 118.704 295.006 99.9313C277.814 81.1584 253.861 71.3141 223.145 70.3984L159.537 70.0549Z"/>
</svg>